<svg width="686" height="261" viewBox="0 0 686 261" fill="none" xmlns="http://www.w3.org/2000/svg">
    <path d="M54.1714 0V151.663H0V0H54.1714Z" fill="white"/>
    <path d="M234.743 36.0713L146.653 207H87.3574L122.008 145.925L64.664 36.0713H124.936L150.801 94.6871L174.959 36.0713H234.743Z" fill="white"/>
    <path d="M342.78 112.928V151.663H322.283C284.542 151.663 265.671 135.882 265.671 104.32V73.9871H248.59V36.0713H265.671V8.19801H319.843V36.0713H342.292V73.9871H319.843V105.14C319.843 107.872 320.575 109.853 322.039 111.083C323.666 112.313 326.269 112.928 329.847 112.928H342.78Z" fill="white"/>
    <path d="M452.445 112.928V151.663H431.947C394.206 151.663 375.336 135.882 375.336 104.32V73.9871H358.255V36.0713H375.336V8.19801H429.507V36.0713H451.957V73.9871H429.507V105.14C429.507 107.872 430.239 109.853 431.703 111.083C433.33 112.313 435.933 112.928 439.512 112.928H452.445Z" fill="white"/>
    <path d="M528.301 0V151.663H474.13V0H528.301Z" fill="white"/>
    <path d="M686 92.8426C686 95.9851 685.756 98.9911 685.268 101.86H598.155C598.968 111.835 603.93 116.822 613.039 116.822C618.896 116.822 623.125 114.567 625.728 110.058H683.072C681.12 118.256 676.971 125.635 670.627 132.193C664.445 138.615 656.555 143.739 646.958 147.564C637.522 151.253 627.111 153.098 615.724 153.098C602.059 153.098 589.858 150.707 579.121 145.925C568.547 141.143 560.251 134.311 554.232 125.43C548.375 116.412 545.447 105.891 545.447 93.8673C545.447 81.8436 548.375 71.3911 554.232 62.5099C560.251 53.4921 568.547 46.5921 579.121 41.8099C589.858 37.0277 602.059 34.6366 615.724 34.6366C629.388 34.6366 641.508 37.0277 652.082 41.8099C662.819 46.4554 671.115 53.1505 676.971 61.895C682.99 70.6396 686 80.9554 686 92.8426ZM631.097 81.9802C631.097 78.1544 629.633 75.2851 626.704 73.3723C623.776 71.3228 620.116 70.298 615.724 70.298C606.126 70.298 600.513 74.1921 598.887 81.9802H631.097Z" fill="white"/>
    <path d="M263.847 244.604C260.851 244.604 258.159 243.943 255.771 242.621C253.384 241.248 251.479 239.164 250.057 236.367C248.686 233.52 248 229.885 248 225.462C248 220.988 248.787 217.302 250.362 214.404C251.936 211.455 254.019 209.269 256.609 207.845C259.2 206.371 262.019 205.634 265.066 205.634C266.844 205.634 268.546 205.812 270.171 206.168C271.796 206.523 273.244 207.057 274.514 207.769V197.855C274.514 196.787 274.336 195.999 273.98 195.491C273.676 194.982 272.99 194.627 271.923 194.423L270.476 194.118V193.356L284.342 190L285.18 190.686L284.876 201.363V238.655C284.876 239.672 285.053 240.511 285.409 241.172C285.764 241.782 286.425 242.214 287.39 242.468L288.075 242.697V243.46L275.047 244.299L274.361 241.553C272.99 242.468 271.415 243.206 269.638 243.765C267.911 244.324 265.981 244.604 263.847 244.604ZM268.266 241.782C270.4 241.782 272.355 241.146 274.133 239.875V209.599C272.254 208.379 270.323 207.769 268.342 207.769C265.904 207.769 263.822 209.193 262.095 212.04C260.368 214.836 259.505 219.259 259.505 225.309C259.505 231.359 260.317 235.63 261.943 238.121C263.568 240.562 265.676 241.782 268.266 241.782Z" fill="white"/>
    <path d="M310.568 205.634C313.869 205.634 316.688 206.32 319.025 207.693C321.361 209.015 323.139 210.845 324.358 213.184C325.628 215.472 326.263 218.09 326.263 221.039C326.263 221.598 326.238 222.183 326.187 222.793C326.136 223.352 326.034 223.86 325.882 224.318H303.178C303.228 229.809 304.193 233.774 306.073 236.215C308.003 238.604 310.847 239.799 314.606 239.799C317.146 239.799 319.203 239.392 320.777 238.579C322.352 237.765 323.825 236.571 325.196 234.995L325.958 235.681C324.384 238.477 322.276 240.663 319.634 242.24C317.044 243.816 313.92 244.604 310.263 244.604C306.657 244.604 303.457 243.841 300.663 242.316C297.87 240.74 295.686 238.503 294.111 235.605C292.537 232.707 291.749 229.25 291.749 225.233C291.749 221.064 292.663 217.531 294.492 214.633C296.321 211.684 298.657 209.447 301.501 207.922C304.397 206.396 307.419 205.634 310.568 205.634ZM310.339 207.159C308.866 207.159 307.597 207.617 306.53 208.532C305.514 209.396 304.701 210.972 304.092 213.26C303.533 215.497 303.228 218.675 303.178 222.793H316.206C316.714 217.251 316.511 213.26 315.596 210.82C314.682 208.379 312.93 207.159 310.339 207.159Z" fill="white"/>
    <path d="M346.829 243.689L333.343 211.277C332.632 209.549 331.413 208.405 329.686 207.845L328.619 207.54V206.778H348.352V207.54L346.981 207.845C345 208.354 344.391 209.676 345.152 211.811L353.152 233.088L360.619 211.963C361.025 210.947 361.127 210.108 360.924 209.447C360.72 208.786 360.111 208.303 359.095 207.998L357.19 207.54V206.778H368.238V207.54L366.028 208.074C365.063 208.328 364.301 208.71 363.743 209.218C363.235 209.726 362.803 210.489 362.447 211.506L351.248 243.689H346.829Z" fill="white"/>
    <path d="M387.278 205.634C390.579 205.634 393.398 206.32 395.735 207.693C398.071 209.015 399.849 210.845 401.068 213.184C402.338 215.472 402.973 218.09 402.973 221.039C402.973 221.598 402.947 222.183 402.897 222.793C402.846 223.352 402.744 223.86 402.592 224.318H379.888C379.938 229.809 380.903 233.774 382.783 236.215C384.713 238.604 387.557 239.799 391.316 239.799C393.856 239.799 395.913 239.392 397.487 238.579C399.062 237.765 400.535 236.571 401.906 234.995L402.668 235.681C401.094 238.477 398.986 240.663 396.344 242.24C393.754 243.816 390.63 244.604 386.973 244.604C383.367 244.604 380.167 243.841 377.373 242.316C374.58 240.74 372.396 238.503 370.821 235.605C369.246 232.707 368.459 229.25 368.459 225.233C368.459 221.064 369.373 217.531 371.202 214.633C373.031 211.684 375.367 209.447 378.211 207.922C381.107 206.396 384.129 205.634 387.278 205.634ZM387.049 207.159C385.576 207.159 384.307 207.617 383.24 208.532C382.224 209.396 381.411 210.972 380.802 213.26C380.243 215.497 379.938 218.675 379.888 222.793H392.916C393.424 217.251 393.221 213.26 392.306 210.82C391.392 208.379 389.64 207.159 387.049 207.159Z" fill="white"/>
    <path d="M405.808 243.46V242.697L406.722 242.392C408.551 241.782 409.465 240.511 409.465 238.579V197.779C409.465 196.762 409.262 195.999 408.855 195.491C408.449 194.932 407.738 194.525 406.722 194.271L405.732 194.042V193.279L419.674 190L420.589 190.686L420.284 201.363V227.445C420.284 229.326 420.284 231.207 420.284 233.088C420.335 234.918 420.36 236.749 420.36 238.579C420.36 239.596 420.563 240.435 420.97 241.096C421.376 241.706 422.062 242.163 423.027 242.468L424.017 242.697V243.46H405.808Z" fill="white"/>
    <path d="M446.655 244.604C442.795 244.604 439.443 243.816 436.598 242.24C433.754 240.613 431.545 238.325 429.97 235.376C428.446 232.427 427.684 228.97 427.684 225.004C427.684 221.039 428.497 217.607 430.122 214.709C431.799 211.811 434.059 209.574 436.903 207.998C439.798 206.422 443.049 205.634 446.655 205.634C450.262 205.634 453.487 206.422 456.331 207.998C459.176 209.523 461.411 211.735 463.036 214.633C464.712 217.531 465.55 220.988 465.55 225.004C465.55 229.021 464.763 232.503 463.188 235.452C461.665 238.35 459.481 240.613 456.636 242.24C453.843 243.816 450.516 244.604 446.655 244.604ZM446.655 243.078C448.433 243.078 449.855 242.57 450.922 241.553C451.989 240.536 452.751 238.731 453.208 236.139C453.716 233.546 453.97 229.885 453.97 225.157C453.97 220.378 453.716 216.692 453.208 214.099C452.751 211.506 451.989 209.701 450.922 208.684C449.855 207.667 448.433 207.159 446.655 207.159C444.878 207.159 443.43 207.667 442.313 208.684C441.246 209.701 440.459 211.506 439.951 214.099C439.494 216.692 439.265 220.378 439.265 225.157C439.265 229.885 439.494 233.546 439.951 236.139C440.459 238.731 441.246 240.536 442.313 241.553C443.43 242.57 444.878 243.078 446.655 243.078Z" fill="white"/>
    <path d="M468.153 261V260.237L469.067 259.932C470.946 259.424 471.886 258.204 471.886 256.272V214.785C471.886 213.667 471.683 212.828 471.276 212.269C470.921 211.709 470.235 211.328 469.219 211.125L468.153 210.896V210.133L481.105 205.71L481.867 206.473L482.552 208.837C484.229 207.82 486.082 207.032 488.114 206.473C490.197 205.913 492.33 205.634 494.514 205.634C498.882 205.634 502.336 207.311 504.876 210.667C507.466 213.972 508.761 218.725 508.761 224.928C508.761 231.029 507.339 235.834 504.495 239.342C501.701 242.85 497.739 244.604 492.609 244.604C488.597 244.604 485.219 244.019 482.476 242.85V256.043C482.476 258.077 483.39 259.348 485.219 259.856L486.667 260.237V261H468.153ZM488.952 242.392C491.492 242.392 493.498 241.07 494.971 238.426C496.495 235.783 497.257 231.385 497.257 225.233C497.257 219.081 496.546 214.785 495.124 212.345C493.701 209.854 491.644 208.608 488.952 208.608C487.073 208.608 484.99 209.218 482.705 210.438V241.172C484.635 241.985 486.717 242.392 488.952 242.392Z" fill="white"/>
    <path d="M512.199 243.46V242.697L513.266 242.392C514.231 242.138 514.892 241.706 515.247 241.096C515.653 240.485 515.882 239.672 515.933 238.655V214.785C515.933 213.667 515.755 212.853 515.399 212.345C515.044 211.786 514.358 211.404 513.342 211.201L512.199 210.896V210.133L525.228 205.71L525.99 206.473L526.599 211.658C528.275 209.981 530.18 208.557 532.313 207.388C534.497 206.218 536.758 205.634 539.094 205.634C541.532 205.634 543.488 206.142 544.961 207.159C546.434 208.125 547.551 209.65 548.313 211.735C550.294 209.854 552.427 208.379 554.713 207.311C557.049 206.193 559.31 205.634 561.494 205.634C565.1 205.634 567.741 206.498 569.418 208.227C571.145 209.955 572.008 212.675 572.008 216.387V238.731C572.008 240.714 572.922 241.96 574.751 242.468L575.589 242.697V243.46H557.989V242.697L558.751 242.468C559.716 242.163 560.376 241.706 560.732 241.096C561.138 240.485 561.341 239.672 561.341 238.655V215.319C561.341 213.184 560.961 211.735 560.199 210.972C559.437 210.159 558.218 209.752 556.542 209.752C555.221 209.752 553.926 210.057 552.656 210.667C551.437 211.226 550.142 212.091 548.77 213.26C549.024 214.073 549.177 214.963 549.227 215.929C549.329 216.895 549.38 217.912 549.38 218.98V238.731C549.431 240.714 550.345 241.96 552.123 242.468L552.808 242.697V243.46H535.132V242.697L536.199 242.392C537.164 242.087 537.824 241.655 538.18 241.096C538.586 240.485 538.789 239.672 538.789 238.655V215.395C538.789 213.362 538.409 211.913 537.647 211.048C536.936 210.184 535.691 209.752 533.913 209.752C532.745 209.752 531.577 210.057 530.409 210.667C529.24 211.226 528.021 212.065 526.752 213.184V238.731C526.752 240.714 527.64 241.96 529.418 242.468L530.104 242.697V243.46H512.199Z" fill="white"/>
    <path d="M597.691 205.634C600.992 205.634 603.811 206.32 606.148 207.693C608.484 209.015 610.262 210.845 611.481 213.184C612.751 215.472 613.386 218.09 613.386 221.039C613.386 221.598 613.36 222.183 613.31 222.793C613.259 223.352 613.157 223.86 613.005 224.318H590.3C590.351 229.809 591.316 233.774 593.196 236.215C595.126 238.604 597.97 239.799 601.729 239.799C604.268 239.799 606.326 239.392 607.9 238.579C609.475 237.765 610.948 236.571 612.319 234.995L613.081 235.681C611.506 238.477 609.399 240.663 606.757 242.24C604.167 243.816 601.043 244.604 597.386 244.604C593.78 244.604 590.58 243.841 587.786 242.316C584.993 240.74 582.809 238.503 581.234 235.605C579.659 232.707 578.872 229.25 578.872 225.233C578.872 221.064 579.786 217.531 581.615 214.633C583.443 211.684 585.78 209.447 588.624 207.922C591.52 206.396 594.542 205.634 597.691 205.634ZM597.462 207.159C595.989 207.159 594.719 207.617 593.653 208.532C592.637 209.396 591.824 210.972 591.215 213.26C590.656 215.497 590.351 218.675 590.3 222.793H603.329C603.837 217.251 603.634 213.26 602.719 210.82C601.805 208.379 600.053 207.159 597.462 207.159Z" fill="white"/>
    <path d="M617.183 243.46V242.697L618.249 242.392C620.027 241.884 620.916 240.638 620.916 238.655V214.785C620.916 213.667 620.738 212.853 620.383 212.345C620.027 211.786 619.341 211.404 618.326 211.201L617.183 210.896V210.133L630.211 205.71L630.973 206.473L631.582 211.048C633.36 209.472 635.367 208.176 637.601 207.159C639.836 206.142 642.046 205.634 644.23 205.634C647.582 205.634 650.147 206.549 651.925 208.379C653.754 210.209 654.668 213.006 654.668 216.768V238.731C654.668 240.714 655.633 241.96 657.563 242.468L658.249 242.697V243.46H640.268V242.697L641.258 242.392C643.036 241.833 643.925 240.587 643.925 238.655V214.328C643.925 211.074 642.3 209.447 639.049 209.447C636.814 209.447 634.376 210.565 631.735 212.802V238.731C631.735 240.714 632.624 241.96 634.401 242.468L635.087 242.697V243.46H617.183Z" fill="white"/>
    <path d="M675.333 244.604C672.083 244.604 669.543 243.79 667.715 242.163C665.937 240.536 665.048 237.943 665.048 234.385V208.303H659.791V207.54L661.619 207.235C663.194 206.879 664.54 206.371 665.657 205.71C666.826 205.049 667.969 204.159 669.086 203.041L675.333 196.101H676.095L675.867 206.778H684.4V208.303H675.791V235.757C675.791 237.537 676.172 238.884 676.933 239.799C677.746 240.714 678.762 241.172 679.981 241.172C681.048 241.172 681.987 240.918 682.8 240.409C683.613 239.85 684.425 239.113 685.238 238.198L686 238.96C684.984 240.689 683.587 242.062 681.81 243.078C680.032 244.095 677.873 244.604 675.333 244.604Z" fill="white"/>
</svg>
